<?xml version="1.0" standalone="no"?>

<!-- <svg viewBox="0 0 200 200" xmlns="http://www.w3.org/2000/svg">
  <path fill="#F97302" d="M41.1,-70.4C54.1,-63.7,65.9,-54.3,67.6,-42.1C69.4,-29.9,61,-15,61.8,0.4C62.6,15.8,72.4,31.7,69.7,42.2C67,52.7,51.7,57.9,38,64C24.3,70,12.1,77,-0.1,77.3C-12.4,77.5,-24.9,71.1,-39.3,65.4C-53.7,59.7,-70.1,54.9,-76.5,44.1C-82.9,33.3,-79.2,16.7,-78.7,0.3C-78.2,-16.1,-80.8,-32.1,-73.4,-41.1C-66,-50.1,-48.5,-52,-34.6,-58.1C-20.7,-64.2,-10.4,-74.4,1.9,-77.7C14.1,-80.9,28.2,-77,41.1,-70.4Z" transform="translate(100 100)" />
</svg> -->

<svg viewBox="0 0 200 200" xmlns="http://www.w3.org/2000/svg">
  <path fill="#F97302" d="M45.6,-79.2C59,-71.2,69.7,-58.8,78.3,-44.9C86.9,-30.9,93.4,-15.5,93.8,0.3C94.3,16,88.7,32,79.9,45.6C71.1,59.2,59.1,70.4,45.3,78.5C31.4,86.7,15.7,91.7,-0.4,92.5C-16.6,93.2,-33.2,89.7,-46.4,81.2C-59.5,72.7,-69.3,59.2,-77.6,44.8C-86,30.4,-92.9,15.2,-93.2,-0.2C-93.6,-15.6,-87.5,-31.3,-78.2,-44C-68.9,-56.7,-56.5,-66.5,-42.9,-74.4C-29.4,-82.3,-14.7,-88.2,0.7,-89.4C16.1,-90.6,32.2,-87.1,45.6,-79.2Z" transform="translate(100 100)" />
</svg>